<?xml version="1.0" encoding="UTF-8"?>
<!DOCTYPE svg PUBLIC "-//W3C//DTD SVG 1.0//EN" "http://www.w3.org/TR/2001/REC-SVG-20010904/DTD/svg10.dtd">
<!-- Creator: CorelDRAW 2018 (64 Bit Versão de avaliação) -->
<svg xmlns="http://www.w3.org/2000/svg" xml:space="preserve" width="773px" height="694px" version="1.0" style="shape-rendering:geometricPrecision; text-rendering:geometricPrecision; image-rendering:optimizeQuality; fill-rule:evenodd; clip-rule:evenodd"
viewBox="0 0 751.57 675.11"
 xmlns:xlink="http://www.w3.org/1999/xlink">
 <defs>
  <style type="text/css">
   <![CDATA[
    .fil0 {fill:black}
   ]]>
  </style>
 </defs>
 <g id="Camada_x0020_1">
  <metadata id="CorelCorpID_0Corel-Layer"/>
  <path class="fil0" d="M564.79 147.84l0 59.34c0,7.92 24.76,27.85 31.81,36.28 10.46,12.52 20.6,20.4 28.74,29.64 1.96,2.23 2.17,3.08 4.36,5.36l24.82 24.8c11.8,13.39 18.97,19.11 28.72,29.65l14.09 15.09c6.83,6.82 13.89,12.71 19.22,20.67 -6.68,0 -86.4,-0.86 -90.84,0.61 -2.78,0.92 -6.45,4.3 -6.45,7.17l0 279.21 -179.97 -0.98c-21.26,0 -39.79,-0.97 -60.31,-0.97 -81.83,0 -160.55,-0.97 -242.24,-0.97 0,-6.62 -0.99,-10.85 -0.97,-18.48 0.1,-44.62 -1.95,-90.74 -1.95,-135.23 0,-12.97 0,-25.94 0,-38.91 0,-24.12 -1.79,-52.97 -1.89,-76.91 -0.02,-4.58 -0.59,-8.35 -3.37,-11.22 -7.55,-7.8 -49.52,-3.25 -59.9,-3.3 -12.58,-0.05 -21.58,-0.99 -34.07,-0.99 2.9,-4.32 80.5,-81.2 85.35,-85.87 2.4,-2.31 3.51,-2.65 5.87,-4.84 2,-1.85 3.37,-3.39 5.34,-5.36l150.3 -150.3c4.01,-3.97 6.21,-7.22 10.21,-11.19l26.77 -26.74c2.18,-2.36 2.52,-3.47 4.83,-5.87l41.36 -44.24c4.72,-4.76 8.78,-6.98 11.44,-10.95l13.88 12.39c4.83,4.65 8.85,8.89 13.6,13.64 10.86,10.86 60.5,58.04 66.88,66.39 3.16,4.15 9.07,11.17 14.59,12.65 3.66,-2.45 13.62,-8.5 13.62,-11.67l0 -45.73c13.21,0 57.43,-1.29 67.13,0.97 0,26.69 -0.97,50.14 -0.97,76.86zm-552.57 240.29l100.2 0c0,32.59 1.14,63.8 0.97,97.29 -0.05,8.56 0.98,14.13 0.98,23.34l-0.01 49.62c-0.03,9.06 0.98,14.78 0.98,24.31l-0.04 37.01c0.01,5.62 0.89,6.62 1.04,11.6 0.24,7.99 -0.1,16.4 -0.1,24.43 0,6.84 0.28,5.12 3.52,9.12 1.72,2.12 3.91,5.38 6.1,6.55 3.91,2.07 276.18,2.74 293.97,2.74 33.52,0 64.34,0.97 98.26,0.97l120.63 0 0 -286.01 102.15 0c6.68,0 10.7,-7.03 10.7,-8.76 0,-7.72 -13.43,-18.42 -23.11,-29.42l-133.27 -137.17c-1.83,-1.83 -7.76,-7.22 -8.79,-8.73 -2.37,-3.5 -1.18,-12.06 -1.18,-17.3l0.06 -125.56c-0.05,-19.32 -21.98,-9.09 -42.31,-12.17 -7.75,-1.17 -39.12,-0.41 -51.15,-0.41 -12.69,0 -12.47,9.62 -13.23,14.98 -1.27,9.01 -0.39,19.51 -0.39,28.8 -4.24,-2.84 -35.86,-35.97 -48.87,-47.43 -8.12,-7.15 -16.54,-16.46 -24.33,-24.32 -4.35,-4.39 -8.18,-7.2 -12.65,-11.67 -15.04,-15.07 -18.38,-14.15 -43.29,10.7 -4.28,4.27 -7.57,8.22 -11.68,12.64 -2.31,2.48 -2.82,3.82 -5.32,6.35l-23.88 24.77c-2.63,2.66 -3.25,4.21 -5.8,6.85 -8.12,8.43 -16.04,16.01 -24.34,24.3 -2.12,2.12 -3.84,3.65 -5.84,5.82 -29.21,31.58 -60.52,61.51 -90.95,91.95l-60.8 60.8c-4.47,4.47 -8.3,7.28 -12.65,11.67l-72.96 72.97c-5.67,5.66 -34.6,30.36 -34.84,37.7 -0.03,0.89 2.12,7.1 2.96,8.28 1.73,2.43 5.52,3.39 9.26,3.39z"/>
 </g>
</svg>
